<svg width="500" height="500" viewBox="0 0 500 500" fill="none" xmlns="http://www.w3.org/2000/svg">
<path d="M416.787 377.17L414.701 375.58C442.27 339.566 457.142 295.439 456.998 250.084C457.066 215.308 448.354 181.077 431.669 150.565C414.983 120.052 390.865 94.2465 361.548 75.539L362.967 73.3277C392.655 92.2727 417.079 118.406 433.975 149.305C450.872 180.205 459.694 214.87 459.624 250.087C459.769 296.016 444.707 340.701 416.787 377.17V377.17Z" fill="#4C84FF"/>
<path d="M249.744 459.967C134.015 459.967 39.8618 365.813 39.8618 250.086C39.8618 134.36 134.015 40.2026 249.744 40.2026V42.8295C135.463 42.8295 42.4887 135.804 42.4887 250.085C42.4887 364.366 135.463 457.34 249.744 457.34C284.267 457.342 318.244 448.733 348.6 432.291L349.855 434.597C319.114 451.248 284.705 459.968 249.744 459.967V459.967Z" fill="#4C84FF"/>
<path d="M150.423 411.644C93.8808 376.809 60.1249 316.418 60.1249 250.086H65.3758C65.3758 314.578 98.1972 373.3 153.178 407.173L150.423 411.644Z" fill="#4C84FF"/>
<path d="M249.744 439.704C229.093 439.724 208.578 436.368 189.009 429.769L190.689 424.794C209.716 431.213 229.664 434.477 249.744 434.456C344.724 434.456 423.577 363.3 433.159 268.943L438.386 269.472C428.527 366.518 347.429 439.704 249.744 439.704Z" fill="#4C84FF"/>
<path d="M431.77 220.615C425.194 180.051 405.258 142.846 375.126 114.904C344.995 86.9618 306.394 69.884 265.45 66.3808C224.507 62.8776 183.566 73.1497 149.125 95.5669C114.685 117.984 88.7186 151.262 75.3471 190.119L70.3796 188.412C84.1332 148.449 110.84 114.224 146.262 91.1693C181.683 68.1146 223.791 57.5508 265.9 61.1546C308.01 64.7584 347.71 82.3232 378.699 111.061C409.688 139.8 430.192 178.065 436.955 219.784L431.77 220.615Z" fill="#4C84FF"/>
<path d="M249.744 387.042C174.225 387.042 112.789 325.603 112.789 250.086C112.687 219.824 122.708 190.396 141.256 166.484L145.412 169.695C127.575 192.689 117.94 220.986 118.039 250.086C118.039 322.707 177.117 381.791 249.743 381.791C262.56 381.801 275.31 379.941 287.589 376.269L289.098 381.299C276.329 385.116 263.072 387.051 249.744 387.042V387.042Z" fill="#4C84FF"/>
<path d="M342.244 351.085L338.695 347.213C361.803 326.045 376.609 297.333 380.453 266.232C384.298 235.13 376.93 203.677 359.672 177.519L364.05 174.624C381.998 201.823 389.662 234.531 385.666 266.873C381.669 299.215 366.274 329.073 342.244 351.085Z" fill="#4C84FF"/>
<path d="M331.686 146.97C309.766 129.554 282.868 119.575 254.893 118.479C226.918 117.384 199.322 125.228 176.107 140.875L173.167 136.522C197.309 120.251 226.006 112.093 255.097 113.233C284.188 114.373 312.159 124.751 334.954 142.861L331.686 146.97Z" fill="#4C84FF"/>
<path d="M249.744 363.513C231.297 363.51 213.126 359.019 196.802 350.428L198.03 348.102C212.69 355.826 228.895 360.165 245.453 360.802C262.011 361.438 278.502 358.355 293.712 351.78C308.922 345.204 322.464 335.303 333.344 322.805C344.224 310.307 352.164 295.529 356.581 279.558L359.112 280.255C352.468 304.167 338.182 325.249 318.434 340.282C298.687 355.315 274.563 363.474 249.744 363.513Z" fill="#4C84FF"/>
<path d="M169.554 330.304C158.984 319.796 150.604 307.295 144.899 293.525C139.193 279.756 136.276 264.991 136.317 250.086C136.317 187.544 187.2 136.659 249.744 136.659C312.288 136.659 363.17 187.544 363.17 250.086H360.546C360.546 188.99 310.842 139.285 249.744 139.285C188.647 139.285 138.943 188.989 138.943 250.086C138.903 264.646 141.752 279.069 147.325 292.52C152.898 305.971 161.085 318.183 171.41 328.448L169.554 330.304Z" fill="#4C84FF"/>
<path d="M249.744 320.641C231.032 320.641 213.086 313.208 199.854 299.976C186.622 286.744 179.188 268.798 179.188 250.086C179.188 231.373 186.622 213.427 199.854 200.195C213.086 186.964 231.032 179.53 249.744 179.53V184.784C236.829 184.784 224.203 188.613 213.464 195.789C202.725 202.964 194.355 213.163 189.413 225.095C184.47 237.027 183.177 250.157 185.696 262.825C188.216 275.492 194.435 287.128 203.567 296.26C212.7 305.393 224.335 311.613 237.003 314.133C249.67 316.653 262.8 315.36 274.732 310.417C286.665 305.475 296.864 297.105 304.039 286.367C311.215 275.628 315.045 263.003 315.045 250.087H320.296C320.276 268.793 312.836 286.726 299.609 299.953C286.383 313.18 268.45 320.62 249.744 320.641V320.641Z" fill="#4C84FF"/>
<path d="M249.744 285.151C240.448 285.141 231.535 281.443 224.961 274.87C218.387 268.296 214.688 259.383 214.677 250.086H217.304C217.305 257.749 220.017 265.163 224.962 271.017C229.906 276.87 236.762 280.785 244.317 282.066C251.871 283.348 259.635 281.914 266.233 278.019C272.831 274.124 277.838 268.019 280.365 260.786C282.893 253.553 282.779 245.658 280.042 238.501C277.306 231.344 272.125 225.387 265.417 221.685C258.708 217.982 250.906 216.774 243.392 218.274C235.878 219.774 229.138 223.886 224.365 229.88L222.311 228.244C226.007 223.601 230.821 219.973 236.302 217.699C241.783 215.424 247.751 214.578 253.649 215.239C259.546 215.9 265.179 218.046 270.02 221.478C274.861 224.909 278.752 229.513 281.329 234.859C283.906 240.204 285.084 246.116 284.754 252.041C284.423 257.965 282.594 263.709 279.438 268.735C276.282 273.76 271.902 277.902 266.709 280.773C261.516 283.644 255.679 285.151 249.745 285.151H249.744Z" fill="#4C84FF"/>
</svg>
